<svg xmlns="http://www.w3.org/2000/svg" version="1.1" xmlns:xlink="http://www.w3.org/1999/xlink" xmlns:svgjs="http://svgjs.com/svgjs" width="512" height="512" x="0" y="0" viewBox="0 0 512 512" style="enable-background:new 0 0 512 512" xml:space="preserve" class=""><g><path d="M0 85.331h512v341.337H0z" style="" fill="#f0f0f0" data-original="#f0f0f0" class=""></path><path d="M0 127.994h512v42.663H0zM0 213.331h512v42.663H0zM0 298.657h512v42.663H0zM0 383.994h512v42.663H0z" style="" fill="#d80027" data-original="#d80027" class=""></path><path d="M0 85.331h256v183.797H0z" style="" fill="#0052b4" data-original="#0052b4"></path><path d="M140.919 219.429c-23.308 0-42.202-18.895-42.202-42.202s18.895-42.202 42.202-42.202a42.024 42.024 0 0 1 20.075 5.072c-9.365-9.158-22.173-14.811-36.307-14.811-28.686 0-51.941 23.255-51.941 51.941s23.256 51.941 51.941 51.941c14.133 0 26.942-5.653 36.307-14.811a42.021 42.021 0 0 1-20.075 5.072z" style="" fill="#ffda44" data-original="#ffda44"></path><path d="m152.811 147.545 7.493 15.668 16.92-3.91-7.577 15.626 13.608 10.792-16.943 3.819.048 17.367-13.549-10.866-13.549 10.866.047-17.367-16.943-3.819 13.608-10.792-7.579-15.626 16.922 3.91z" style="" fill="#ffda44" data-original="#ffda44"></path></g></svg>